<svg width="24" height="24" viewBox="0 0 24 24" fill="none" xmlns="http://www.w3.org/2000/svg">
<path d="M18.375 13.3125C21.1709 13.3125 23.4375 15.5791 23.4375 18.375C23.4375 21.1709 21.1709 23.4375 18.375 23.4375C15.5791 23.4375 13.3125 21.1709 13.3125 18.375C13.3125 15.5791 15.5791 13.3125 18.375 13.3125ZM17.25 1.3125C17.7678 1.3125 18.1875 1.73223 18.1875 2.25C18.1875 2.76777 17.7678 3.1875 17.25 3.1875H15.1875V8.71582L15.7803 9.60449C16.0674 10.0352 15.9511 10.618 15.5205 10.9053C15.0898 11.1924 14.507 11.0761 14.2197 10.6455L13.4697 9.52051C13.3671 9.36651 13.3125 9.18509 13.3125 9V3.1875H10.6875V9C10.6875 9.18509 10.6329 9.36651 10.5303 9.52051L7.50195 14.0625H10.125C10.6428 14.0625 11.0625 14.4822 11.0625 15C11.0625 15.5178 10.6428 15.9375 10.125 15.9375H6.25195L3.29004 20.3799C3.22326 20.48 3.1875 20.5984 3.1875 20.7188C3.18765 20.7705 3.22954 20.8124 3.28125 20.8125H9.75C10.2678 20.8125 10.6875 21.2322 10.6875 21.75C10.6875 22.2678 10.2678 22.6875 9.75 22.6875H3.28125C2.194 22.6874 1.31265 21.806 1.3125 20.7188C1.3125 20.2282 1.45738 19.748 1.72949 19.3398L8.8125 8.71582V3.1875H6.75C6.23223 3.1875 5.8125 2.76777 5.8125 2.25C5.8125 1.73223 6.23223 1.3125 6.75 1.3125H17.25ZM15.5957 16.8164C15.3366 17.2774 15.1875 17.8086 15.1875 18.375C15.1875 20.1354 16.6146 21.5625 18.375 21.5625C18.9413 21.5625 19.4717 21.4123 19.9326 21.1533L15.5957 16.8164ZM18.375 15.1875C17.8086 15.1875 17.2774 15.3366 16.8164 15.5957L21.1533 19.9326C21.4123 19.4717 21.5625 18.9413 21.5625 18.375C21.5625 16.6146 20.1354 15.1875 18.375 15.1875Z" fill="#1B1B1B"/>
</svg>
