<svg width="16" height="16" viewBox="0 0 16 16" fill="none" xmlns="http://www.w3.org/2000/svg">
<path d="M7.18652 0.497238C7.68916 0.207041 8.30882 0.207202 8.81152 0.497238L14.0908 3.54509C14.5934 3.83537 14.9032 4.37194 14.9033 4.95232V11.048C14.9031 11.6283 14.5934 12.165 14.0908 12.4552L8.81152 15.5031C8.3089 15.793 7.68908 15.7932 7.18652 15.5031L1.9082 12.4552C1.40559 12.1651 1.0959 11.6284 1.0957 11.048V4.95232C1.09577 4.3719 1.40557 3.83535 1.9082 3.54509L7.18652 0.497238ZM8.18652 1.58025C8.07054 1.51338 7.92748 1.5133 7.81152 1.58025L2.5332 4.6281C2.41741 4.69509 2.34577 4.81853 2.3457 4.95232V11.048C2.3459 11.1817 2.41742 11.3053 2.5332 11.3722L7.81152 14.4201C7.9274 14.4869 8.07061 14.4868 8.18652 14.4201L13.4658 11.3722C13.5815 11.3053 13.6531 11.1817 13.6533 11.048V4.95232C13.6532 4.81861 13.5815 4.69512 13.4658 4.6281L8.18652 1.58025ZM12.3301 4.87517C12.5533 4.87517 12.7594 4.99438 12.8711 5.18767C12.9826 5.381 12.9827 5.61938 12.8711 5.81267L8.54102 13.3127C8.39951 13.5574 8.11096 13.6768 7.83789 13.6037C7.56499 13.5304 7.37516 13.2828 7.375 13.0002V8.36052L3.35742 6.04118C3.11261 5.89978 2.99339 5.61116 3.06641 5.33806C3.13975 5.06502 3.38717 4.87517 3.66992 4.87517H12.3301ZM8.3125 7.45915C8.50574 7.57083 8.625 7.77696 8.625 8.00017V10.6672L11.248 6.12517H6.00195L8.3125 7.45915Z" fill="#1B1B1B"/>
</svg>
